<?xml version="1.0" encoding="utf-8"?>
<!-- Generator: Adobe Illustrator 22.1.0, SVG Export Plug-In . SVG Version: 6.00 Build 0)  -->
<svg version="1.1" id="圖層_1" xmlns="http://www.w3.org/2000/svg" xmlns:xlink="http://www.w3.org/1999/xlink" x="0px" y="0px"
	 viewBox="0 0 300 200" style="enable-background:new 0 0 300 200;" xml:space="preserve">
<style type="text/css">
	.st0{fill:#FFFF00;}
	.st1{fill:#FFFFFF;}
</style>
<path class="st0" d="M68.3,51.6h-2.9V37.8H39.8v15.8h-2.9V37.8H11.2v13.7H8.4V35.2h28.5v-6.6H10.5v-2.7h55.5v2.7H39.8v6.6h28.5V51.6
	z M70.5,80.9c-0.2,3.2-0.9,5.5-1.9,6.9c-1,1.4-2.8,2.3-5.2,2.5c-2.5,0.2-6.1,0.3-11,0.3c-7.3,0-11.8-0.3-13.3-0.9
	c-1.5-0.6-2.3-2.3-2.3-4.9V79H13.5V57h49.7v22H39.8v6.5c0,0.9,0.2,1.4,0.6,1.7c0.4,0.3,1.8,0.5,4.1,0.6c2.3,0.1,5.2,0.2,8.6,0.2
	c6.4,0,10.4-0.2,11.9-0.5c1.5-0.4,2.5-3,2.8-7.8L70.5,80.9z M32.7,50.9c-6.3,1.5-12,2.6-17,3.2l-0.8-2.6c5.6-0.6,11.2-1.6,16.7-3
	L32.7,50.9z M32.6,43.6l-1,2.5c-4.9-1.2-10.2-2.1-16.2-2.6l1.2-2.5C22.3,41.6,27.6,42.4,32.6,43.6z M36.8,66.6v-6.8H16.4v6.8H36.8z
	 M36.8,76.3v-7H16.4v7H36.8z M60.2,66.6v-6.8H39.8v6.8H60.2z M60.2,76.3v-7H39.8v7H60.2z M62,51.7l-1.4,2.5
	c-5.9-1.6-11.8-2.6-17.6-3.2l1.3-2.4C50.8,49.3,56.7,50.3,62,51.7z M61.5,43.8c-6.7,1.4-12.3,2.2-16.9,2.6l-0.9-2.6
	c4.7-0.4,10.3-1.2,16.9-2.6L61.5,43.8z"/>
<path class="st0" d="M90.1,74.4c-4.2,3.9-8.7,6.9-13.4,9.3l-1.6-2.6c4.8-2.4,9-5.4,12.8-9L90.1,74.4z M122.1,55.8l-41.9-6.4l0.4-2.8
	l20.1,3.1c-0.4-2.8-0.8-4.8-1.2-5.8l-13.1-2l2.8-18.6l32.2,4.9l-2.8,18.6l-16-2.5c0.4,1.6,0.9,3.5,1.3,5.8l18.8,2.9L122.1,55.8z
	 M113.7,72.9l-13.5-2.1l-2.3,14.9c-0.3,1.6-0.9,2.7-1.9,3.3c-1,0.5-2.6,0.6-4.9,0.3l-3.9-0.6l-0.8-3.1l3.8,0.6
	c1.2,0.2,2.2,0.3,3.1,0.4c0.9,0.1,1.5-0.6,1.7-1.9l2.2-14.3L83,68.2l1.9-12.5l30.6,4.7L113.7,72.9z M117.1,35.5l0.8-5l-26.1-4
	l-0.8,5L117.1,35.5z M115.8,43.5l0.8-5.2l-26.1-4l-0.8,5.2L115.8,43.5z M111,69.6l1-6.8L87.6,59l-1,6.8L111,69.6z M113.5,86.6
	l-2.9,1.7c-1.5-4.2-3.4-8.1-5.7-11.7l2.7-1.2C109.8,78.5,111.8,82.3,113.5,86.6z M144.5,75.3c-7.6,7.5-17.3,13.5-29.2,18l-1.9-2.5
	c10.7-3.9,20.3-9.8,28.9-17.8L144.5,75.3z M146.6,53.1c-6.6,6-15.1,10.8-25.6,14.4l-1.6-2.8c10.4-3.3,18.7-8,25.1-14L146.6,53.1z
	 M149.1,32.3c-5.9,5.5-14.1,10-24.7,13.7l-1.6-2.7c10.1-3.1,18.1-7.6,24.2-13.3L149.1,32.3z"/>
<path class="st1" d="M214.4,83.6h-35.8l2.1,2.4c-8.9,4.3-18.5,7.6-28.9,10l-1.9-3c9.8-1.9,19.1-5.1,27.7-9.4h-14.1V52.8h50.8V83.6z
	 M176.6,43.7h-26.2v-3.2h26.2V43.7z M174.6,27.9h-21.9v-3.2h21.9V27.9z M210.8,62v-6.1H167V62H210.8z M210.8,71.2V65H167v6.2H210.8z
	 M210.8,80.6v-6.4H167v6.4H210.8z M227.8,48.1l-1.7,2.7c-11-1.1-20-4.7-27-10.6c-5.4,5.3-12.8,8.9-22.2,10.6l-1.8-2.9
	c12.4-2.1,20.7-7,24.9-14.6l3.7,0.8c-0.6,1.1-1.4,2.4-2.6,3.8C207.3,43.2,216.1,46.6,227.8,48.1z M225.1,29.8c0,0.2-0.8,1.5-2.5,3.9
	c-1.7,2.4-3.5,4.6-5.6,6.6l-2.9-2.1c2.9-2.8,5.2-5.6,7-8.4h-32.7c-2.7,3.2-5.7,6-9,8.4l-2.4-2.4c5.6-4,10.1-9.1,13.6-15.5l3.1,1.4
	c-0.8,1.5-1.9,3.2-3.2,5h34.7V29.8z M227.4,93.2l-1.6,3c-9.1-3.1-18.4-5.4-28.1-7l1.5-3C209,87.8,218.4,90.1,227.4,93.2z"/>
<path class="st1" d="M254.8,35.6H230v-2.9H241c-0.7-2.8-1.7-5.3-3-7.6l3.1-1.3c1.4,2.4,2.6,5.4,3.5,8.8h10.3V35.6z M252.6,46.9
	h-20.7V44h20.7V46.9z M252.6,58.4h-20.7v-2.9h20.7V58.4z M251.8,90.9h-3v-4.5h-13v6.1h-3V67.2h19.1V90.9z M248.7,83.5V70.1h-13v13.4
	H248.7z M297,75.1c-1.3,11.5-3.5,17.3-6.7,17.3c-1.8,0-3.3-2.1-4.4-6.4c-1.2-4.3-1.7-9.4-1.7-15.4V29.9h-14.7v25.4h11v2.9h-11v34.3
	h-3V58.1h-10.7v-2.9h10.7V29.9h-10.1V27h30.9v40.9c0,5.8,0.4,10.7,1.1,14.6c0.7,3.9,1.5,5.8,2.4,5.8c1.1,0,2.4-4.9,3.6-14.7
	L297,75.1z"/>
<path class="st1" d="M81.5,127.4c-0.9,9.4-2.3,17.3-4.2,23.5l-3.3-1.2c1.9-6.2,3.3-13.8,4.1-22.7L81.5,127.4z M98.7,143.1l-2.5,3
	c-1.8-3.5-4-7.4-6.8-11.4v55.9h-3.5v-84.9h3.5v23.7C93.3,134.4,96.4,138.9,98.7,143.1z M144.2,184.4c0,2-0.5,3.5-1.4,4.6
	c-0.9,1.1-2.2,1.6-3.7,1.7c-1.6,0.1-4.3,0.1-8.3,0.1l-1.2-3.8c1.6,0.1,4.4,0.2,8.4,0.2c0.7,0,1.4-0.3,1.9-0.9
	c0.6-0.6,0.8-1.4,0.8-2.2v-9.5h-32.3c-1,5.8-3.3,11.5-6.8,17.1l-3.1-2.5c4.9-6.8,7.4-16.2,7.4-28.1v-13.4h38.3V184.4z M149.5,139.5
	H99.7v-3.4h23.5v-8.2h-19.9v-3.4h19.9v-7.8h-22.2v-3.4h22.2v-7.9h3.4v7.9h21.6v3.4h-21.6v7.8h19.6v3.4h-19.6v8.2h22.9V139.5z
	 M140.7,171.1v-8.3h-31.4c0,2.9-0.2,5.7-0.5,8.3H140.7z M140.7,159.3v-8.3h-31.4v8.3H140.7z"/>
<path class="st1" d="M199.3,167.9l-15.9,2.7l2.7,15.6l-3.5,0.6l-2.7-15.6l-17.2,2.9l-0.5-2.9l17.2-2.9l-1.8-10.3l-15.4,2.6l-0.5-2.9
	l9.3-1.6c-2.1-4.9-4.3-9-6.5-12.4l-6.4,1.1l-0.5-2.9l16.8-2.9l-1.7-9.7l-14.5,2.5l-0.5-2.9l14.5-2.5l-1.6-9.3l3.5-0.6l1.6,9.3
	l13.4-2.3l0.5,2.9l-13.4,2.3l1.7,9.7l15.3-2.6l0.5,2.9l-5.6,1c-0.2,5.4-0.9,10-2.1,13.9l8.6-1.5l0.5,2.9l-14,2.4l1.8,10.3l15.9-2.7
	L199.3,167.9z M184.5,140.4l-16.4,2.8c2.3,3.7,4.4,7.9,6.4,12.5l7.7-1.3C183.7,149.8,184.4,145.2,184.5,140.4z M241.4,174.3
	l-1.7,3.1c-5.9-2.2-10.8-4.9-15-8.2c-2.7,4.6-6.3,8.7-10.7,12.5l-2.7-2c4.7-4,8.3-8.3,10.8-12.7c-6.1-5.5-11.3-13.8-15.6-25
	l-4.4,0.8l6.8,39.5l-3.5,0.6l-11.5-67.2l32-5.5l0.5,2.4c0.6,3.8,1,7,1.1,9.9c0.1,2.8-0.6,4.7-1.9,5.8c-1.4,1-4.3,1.9-8.8,2.7
	l-3.1,0.5l-1.9-2.9c2.4-0.2,4.5-0.5,6.4-0.8c2.7-0.5,4.4-1,4.9-1.6c0.6-0.6,0.8-1.9,0.8-4c-0.1-2.1-0.3-4.5-0.7-7l-0.2-1.4l-25,4.3
	l3.7,21.7l28.3-4.8c1.5,12.8,0.3,23.2-3.6,31.2C230.5,169.5,235.5,172.2,241.4,174.3z M226.9,138.5l-16.9,2.9
	c3.8,9.8,8.4,17.3,13.8,22.4C226.5,157.7,227.5,149.2,226.9,138.5z"/>
<rect x="10" y="147.5" class="st1" width="52" height="2"/>
<rect x="236" y="147.5" class="st1" width="52" height="2"/>
</svg>
